<svg version="1.0" xmlns="http://www.w3.org/2000/svg"
 width="1024.000000pt" height="1024.000000pt" viewBox="0 0 1024.000000 1024.000000"
 preserveAspectRatio="xMidYMid meet">
<metadata>
Created by potrace 1.16, written by Peter Selinger 2001-2019
</metadata>
<g transform="translate(0.000000,1024.000000) scale(0.100000,-0.100000)"
fill="#000000" stroke="none">
<path d="M0 8750 l0 -1490 45 0 c58 0 91 -16 116 -57 19 -31 23 -66 18 -173 0
-14 3 -46 6 -71 14 -89 -68 -189 -155 -189 l-30 0 0 -3050 c0 -1677 2 -3050 4
-3050 7 0 82 33 164 71 45 21 89 39 97 39 7 0 17 4 20 10 3 5 17 10 30 10 13
0 25 3 27 8 2 4 35 21 73 37 39 16 77 36 85 44 13 13 16 8 23 -50 4 -35 17
-98 27 -140 18 -70 19 -80 5 -119 -8 -24 -28 -64 -43 -89 -61 -99 -107 -217
-134 -343 -10 -45 -28 -66 -28 -33 0 8 -11 17 -25 21 -19 5 -25 13 -25 35 0
16 -9 37 -22 49 -12 11 -16 20 -10 20 7 0 12 7 12 15 0 8 9 23 20 32 32 28 25
43 -20 43 -22 0 -40 -5 -40 -11 0 -5 -4 -7 -10 -4 -11 7 -70 -22 -70 -34 0
-12 -74 -25 -122 -22 l-38 3 0 -110 0 -110 40 -7 c22 -4 47 -13 54 -21 13 -12
556 -14 3789 -14 l3775 0 20 62 c52 162 56 467 8 693 -14 66 -32 154 -41 195
-9 41 -27 118 -41 171 -31 117 -29 173 3 177 19 3 23 10 23 41 0 50 25 73 68
65 44 -9 75 14 92 67 16 54 21 281 6 291 -7 5 -7 8 2 8 17 0 76 -64 98 -108
11 -19 31 -48 45 -64 26 -29 37 -63 63 -188 8 -36 20 -77 27 -93 10 -22 10
-58 -1 -185 -15 -184 -15 -193 5 -232 10 -20 15 -59 15 -122 0 -109 7 -141 27
-134 8 4 11 1 8 -5 -27 -42 237 -130 296 -99 13 8 31 7 59 -1 33 -10 39 -16
38 -36 -1 -12 -6 -23 -11 -23 -4 0 -5 -5 -1 -12 4 -6 3 -8 -3 -5 -6 4 -16 0
-23 -8 -10 -12 -10 -18 0 -30 7 -8 16 -13 20 -10 5 3 11 1 15 -5 3 -6 -4 -10
-17 -11 -14 0 -1 -8 32 -19 82 -28 150 -25 150 6 0 8 7 14 15 14 19 0 19 3 -5
50 -11 22 -20 55 -20 74 0 26 -6 38 -22 47 -26 14 -154 20 -185 8 -19 -7 -23
-5 -23 9 0 10 -9 28 -20 40 -11 12 -20 34 -20 50 0 16 -8 44 -17 62 -21 43
-19 133 3 192 27 69 29 174 5 269 -23 91 -20 146 19 294 12 44 25 96 30 115
11 49 20 70 46 105 30 40 96 168 119 230 25 65 68 120 113 141 34 16 40 16
121 -4 47 -12 98 -23 112 -26 66 -14 160 -132 175 -221 11 -70 35 -128 77
-190 22 -33 43 -62 47 -65 16 -11 38 -68 44 -115 4 -27 13 -70 21 -95 35 -113
43 -158 35 -202 -12 -62 -40 -118 -73 -146 -15 -13 -27 -31 -27 -40 0 -10 -5
-24 -10 -32 -9 -12 -16 -8 -45 24 -19 22 -35 35 -35 29 0 -6 -11 -8 -25 -5
-26 5 -55 -12 -55 -32 0 -15 62 -42 118 -51 24 -4 42 -12 42 -20 0 -7 7 -18
15 -25 9 -7 14 -19 11 -25 -2 -7 1 -21 8 -31 21 -31 45 -101 38 -109 -4 -4 -7
-14 -8 -23 -1 -10 -2 -29 -3 -43 0 -14 -10 -36 -21 -49 -11 -13 -20 -27 -20
-31 0 -4 -24 -15 -52 -25 -64 -22 -56 -20 -95 -29 -18 -4 -33 -13 -33 -20 0
-8 -16 -19 -35 -25 -41 -13 -41 -14 -17 -37 36 -35 66 -45 156 -53 132 -13
178 -21 201 -36 32 -23 72 -14 113 24 16 14 12 13 85 17 35 2 68 10 85 21 83
56 187 85 270 75 71 -9 122 -31 187 -80 27 -21 67 -41 88 -45 21 -4 45 -10 53
-13 12 -4 14 19 14 149 l0 153 -32 17 c-41 21 -351 142 -433 169 -77 25 -90
35 -116 95 -45 104 -34 189 41 319 32 55 35 68 38 157 4 97 5 98 40 133 46 44
89 53 157 31 28 -9 60 -16 69 -16 17 0 82 -24 164 -61 23 -10 49 -19 57 -19
13 0 15 109 14 858 0 785 -7 989 -22 712 -4 -58 -11 -141 -17 -185 -15 -106
-18 -133 -25 -245 -4 -52 -13 -108 -20 -125 -7 -16 -17 -58 -21 -93 -3 -34
-11 -65 -15 -68 -5 -3 -9 -14 -9 -25 0 -11 -4 -17 -10 -14 -5 3 -10 2 -10 -4
0 -6 -8 -7 -17 -4 -12 5 -15 2 -10 -10 6 -17 -7 -24 -17 -9 -2 4 -7 38 -10 74
-3 37 -12 82 -19 100 -8 19 -17 65 -21 103 -4 39 -16 131 -27 205 -10 74 -21
182 -24 240 -3 58 -10 150 -15 204 -6 55 -7 122 -4 149 6 40 4 48 -6 42 -10
-6 -11 -1 -5 21 4 16 8 55 9 86 0 32 4 58 7 58 12 0 17 55 6 62 -8 5 -6 8 6 8
14 0 16 4 9 17 -7 12 -4 29 11 59 23 48 54 60 102 39 42 -19 75 -28 110 -30
17 -1 38 -5 48 -9 16 -8 17 152 17 3278 l0 3286 -315 0 c-266 0 -315 -2 -315
-14 0 -8 -6 -21 -13 -28 -8 -7 -25 -32 -40 -54 -14 -22 -31 -47 -39 -55 -7 -8
-22 -27 -32 -44 -11 -16 -25 -34 -33 -38 -7 -4 -13 -14 -13 -21 0 -16 -22 -26
-56 -26 -17 0 -24 -6 -24 -20 0 -28 -13 -25 -49 11 -29 28 -30 34 -22 67 5 21
15 69 21 107 6 39 14 80 17 93 l5 22 -338 0 -339 0 -1 -77 c0 -97 -11 -148
-39 -193 -12 -19 -22 -37 -22 -40 0 -18 -20 -61 -45 -98 -16 -24 -27 -50 -24
-58 3 -9 1 -12 -4 -9 -6 3 -10 -2 -10 -12 0 -10 -7 -30 -14 -45 -14 -27 -14
-28 13 -28 18 0 34 8 43 21 13 21 15 21 32 4 16 -17 16 -19 -3 -39 -12 -12
-21 -31 -21 -41 0 -10 -18 -36 -40 -57 -22 -22 -40 -44 -40 -49 0 -11 -42 -72
-53 -77 -4 -2 -7 -10 -7 -18 0 -8 -4 -14 -10 -14 -5 0 -10 -16 -10 -35 0 -23
-5 -35 -13 -35 -13 0 -64 -87 -60 -101 1 -4 -4 -13 -12 -19 -20 -16 -19 -49 0
-46 8 1 21 8 27 14 7 7 18 12 25 12 7 0 13 9 13 19 0 24 16 36 23 19 2 -7 8
-1 12 15 4 15 12 27 18 27 6 0 19 7 29 17 14 13 18 13 18 2 0 -9 12 -14 33
-15 17 -1 26 1 19 3 -6 3 -12 9 -12 15 0 15 73 0 87 -19 17 -22 111 -13 129
13 7 11 18 24 23 30 5 7 32 45 60 86 27 41 75 100 105 131 31 31 53 57 49 57
-4 0 9 11 29 25 20 14 39 25 42 25 11 0 74 69 68 74 -3 3 -1 6 4 6 43 0 47
-211 5 -257 -26 -29 -61 -101 -61 -128 0 -14 -14 -38 -35 -59 -19 -20 -35 -44
-35 -56 0 -11 -7 -20 -15 -20 -8 0 -15 -8 -15 -18 0 -10 -7 -27 -15 -38 -8
-10 -15 -27 -15 -37 0 -10 -11 -35 -25 -55 -14 -20 -25 -47 -25 -60 0 -12 -7
-25 -15 -28 -8 -4 -13 -10 -10 -15 3 -4 -10 -39 -29 -76 -18 -37 -49 -99 -67
-138 -19 -38 -37 -71 -41 -73 -5 -2 -8 -9 -8 -15 0 -14 -39 -90 -50 -97 -11
-8 -40 -67 -40 -83 0 -8 -7 -20 -15 -27 -8 -6 -28 -41 -46 -77 -17 -35 -38
-67 -45 -70 -8 -3 -14 -13 -14 -23 0 -10 -7 -23 -15 -30 -9 -7 -15 -29 -15
-50 0 -21 -4 -40 -9 -42 -5 -1 -11 -22 -14 -46 -3 -34 -1 -45 13 -52 10 -5 20
-7 23 -4 3 3 15 1 26 -6 17 -8 21 -18 18 -43 -6 -45 -17 -67 -33 -67 -8 0 -14
-10 -14 -26 0 -14 -4 -23 -9 -20 -10 6 -71 -58 -71 -74 0 -6 -14 -23 -31 -37
-16 -14 -28 -31 -25 -38 4 -12 -31 -53 -40 -47 -2 1 -4 -1 -3 -4 0 -4 -4 -10
-10 -14 -7 -3 -13 -22 -14 -41 -1 -19 -10 -43 -19 -53 -10 -11 -18 -30 -18
-43 0 -13 -4 -23 -9 -23 -13 0 -21 -113 -13 -182 l7 -63 6 45 c5 36 6 29 7
-37 2 -70 5 -83 18 -83 15 0 16 -16 12 -153 -4 -120 -2 -157 8 -172 8 -10 14
-13 14 -7 0 7 6 12 13 12 8 0 12 13 11 38 -1 20 1 26 3 12 4 -24 40 -50 70
-50 9 0 13 -14 13 -40 0 -36 -2 -40 -25 -40 -22 0 -25 -4 -25 -40 0 -30 -4
-40 -16 -40 -13 0 -15 -8 -12 -40 3 -33 0 -40 -14 -40 -14 0 -18 -8 -18 -40 0
-29 4 -40 15 -40 8 0 15 7 15 15 0 12 16 15 80 15 79 0 80 0 80 25 0 16 6 25
15 25 11 0 15 -11 15 -40 l0 -40 79 0 79 0 4 -45 c4 -50 -7 -64 -75 -99 -20
-11 -37 -22 -37 -25 0 -4 -24 -19 -54 -35 -30 -15 -59 -39 -65 -52 -6 -13 -17
-24 -26 -24 -8 0 -15 -9 -15 -20 0 -15 -7 -20 -25 -20 -41 0 -102 -57 -134
-125 -18 -37 -21 -64 -21 -160 0 -67 4 -115 10 -115 5 0 9 -63 7 -160 -1 -123
-4 -160 -14 -160 -8 0 -13 14 -13 40 0 33 -3 40 -20 40 -17 0 -20 7 -21 43 -1
23 -3 34 -6 25 -3 -12 -14 -18 -34 -18 -16 0 -29 -4 -29 -10 0 -5 -9 -10 -20
-10 -11 0 -20 5 -20 10 0 6 -9 10 -20 10 -11 0 -20 -4 -20 -10 0 -5 -10 -10
-23 -10 -13 0 -32 -7 -43 -15 -10 -8 -25 -15 -32 -15 -16 0 -61 -50 -62 -67 0
-15 -20 -18 -20 -4 0 5 -9 7 -21 4 -15 -4 -17 -8 -8 -14 17 -10 -24 -56 -55
-61 -11 -2 -20 -9 -19 -15 3 -13 -35 -38 -44 -29 -3 3 -19 -8 -37 -24 -22 -22
-41 -30 -67 -30 -24 0 -39 -5 -43 -15 -3 -8 -15 -15 -26 -15 -11 0 -20 -4 -20
-10 0 -5 -13 -16 -30 -25 -16 -9 -30 -19 -30 -24 0 -5 -16 -26 -36 -47 -88
-94 -145 -171 -155 -209 -6 -22 -16 -43 -23 -47 -8 -6 -8 -8 0 -8 6 0 14 -13
17 -29 3 -16 13 -36 22 -44 8 -9 15 -18 15 -22 0 -3 12 -17 28 -30 19 -18 24
-27 15 -33 -8 -5 -9 -12 -2 -22 8 -13 10 -13 18 0 5 8 28 35 51 60 23 25 56
60 74 79 39 41 78 59 153 67 32 4 71 13 86 21 19 9 32 11 40 5 12 -10 40 10
31 22 -2 3 -1 4 3 1 3 -3 17 4 29 16 19 17 31 20 68 16 25 -3 46 -2 46 3 0 4
9 6 20 3 11 -3 20 0 20 6 0 5 7 8 15 5 8 -4 21 -1 29 5 7 6 29 10 47 9 24 -2
33 1 31 10 -1 8 2 11 8 7 6 -3 8 -11 5 -16 -10 -15 26 -23 46 -11 13 9 19 8
22 -1 3 -9 8 -9 20 2 11 9 21 10 30 4 6 -5 23 -10 36 -11 13 0 30 -10 38 -21
8 -12 22 -21 31 -21 10 0 28 -7 40 -16 13 -9 31 -13 43 -9 12 4 19 3 16 -2 -3
-5 9 -15 28 -21 18 -7 39 -20 47 -29 9 -12 9 -15 1 -9 -10 5 -13 -4 -13 -33 0
-23 -4 -41 -9 -41 -17 0 -3 -143 19 -195 5 -11 11 -31 14 -45 2 -14 9 -42 14
-62 14 -54 -2 -122 -34 -138 -13 -7 -24 -17 -24 -22 0 -5 -5 -6 -11 -3 -6 4
-27 7 -47 7 -20 0 -43 5 -50 11 -7 5 -39 11 -70 12 -31 2 -64 5 -72 7 -8 3
-26 8 -40 12 -34 9 -350 14 -344 5 2 -4 -19 -12 -46 -19 -30 -7 -54 -20 -61
-31 -5 -10 -16 -19 -23 -19 -7 0 -23 -24 -36 -53 -13 -28 -31 -60 -39 -69 -8
-10 -11 -18 -7 -18 3 0 -1 -11 -10 -25 -8 -13 -13 -29 -9 -35 4 -6 2 -17 -4
-24 -21 -25 -23 -87 -4 -103 10 -8 12 -12 6 -8 -32 16 -9 -17 32 -46 25 -18
45 -38 45 -45 0 -6 11 -32 25 -55 14 -24 25 -54 25 -67 0 -32 32 -40 125 -31
44 4 103 10 130 13 28 3 41 3 30 0 -23 -7 -44 -24 -29 -24 5 0 36 7 68 15 31
8 69 12 83 9 16 -4 28 -2 33 6 5 8 15 10 26 5 11 -4 35 -8 55 -10 39 -3 79
-20 79 -35 0 -6 6 -10 14 -10 7 0 21 -16 30 -35 9 -19 21 -35 26 -35 6 0 10
-9 10 -20 0 -11 5 -20 11 -20 8 0 10 -19 6 -62 -5 -52 -2 -67 14 -90 11 -15
25 -28 30 -28 5 0 19 -9 31 -20 12 -11 32 -20 45 -20 13 0 23 -4 23 -10 0 -5
6 -10 14 -10 8 0 23 -14 33 -30 9 -17 21 -30 25 -30 4 0 8 -9 8 -20 0 -12 7
-32 16 -45 13 -20 15 -42 11 -108 -6 -97 -42 -183 -83 -193 -13 -3 -24 -10
-24 -14 0 -4 -18 -10 -40 -12 -22 -2 -40 -1 -40 3 0 3 -11 4 -25 1 -20 -3 -36
8 -89 61 -35 37 -59 68 -52 71 6 2 2 5 -10 5 -19 1 -65 43 -63 57 0 4 -3 10
-8 13 -15 11 -43 73 -43 96 0 13 -8 31 -17 41 -10 10 -16 20 -13 23 12 14 -52
11 -80 -4 -18 -9 -45 -17 -61 -17 -16 -1 -34 -7 -40 -15 -6 -7 -18 -13 -25
-13 -8 0 -15 -10 -15 -22 -2 -36 -6 -60 -18 -113 -7 -27 -16 -83 -21 -123 -13
-97 -52 -179 -88 -185 -52 -9 -77 -6 -97 13 -11 10 -38 25 -60 32 -22 7 -44
23 -50 34 -6 12 -16 28 -23 36 -6 8 -9 17 -6 21 3 3 -3 10 -14 16 -11 6 -23
22 -26 36 -4 14 -11 25 -16 25 -5 0 -21 18 -34 39 -17 26 -35 41 -55 46 -38 8
-101 -18 -108 -45 -7 -28 -34 -19 -103 37 -89 71 -93 74 -145 106 -130 81
-222 105 -350 90 l-80 -8 -60 38 c-32 21 -62 43 -66 49 -4 6 -4 47 -2 92 3 45
0 92 -5 106 -9 21 -11 14 -11 -41 -1 -108 -36 -180 -103 -215 -40 -21 -48 -17
-13 6 17 11 26 20 20 20 -5 0 0 7 12 15 12 8 31 41 43 73 18 48 21 72 17 147
-5 109 -33 178 -129 317 -114 166 -379 445 -459 482 -10 5 -19 16 -19 25 0 23
81 273 94 290 6 8 34 31 62 52 52 38 94 104 94 146 0 11 -11 36 -24 56 -24 35
-24 37 -7 58 l18 22 133 -46 c160 -57 267 -77 411 -77 167 0 228 29 299 145
21 35 25 54 30 184 8 171 23 216 96 287 45 44 46 47 42 96 -4 32 -13 57 -26
71 -21 20 -21 20 -1 48 29 42 79 164 79 196 0 17 -12 42 -30 63 -57 66 -76
174 -42 232 10 17 40 42 72 58 66 34 101 63 129 110 38 63 20 156 -29 154 -81
-4 -147 -6 -162 -5 -18 1 -78 51 -62 51 5 0 1 5 -8 11 -13 7 -15 15 -8 33 5
13 6 27 3 30 -4 3 -1 6 5 6 13 0 10 38 -4 48 -16 12 -35 52 -24 52 5 0 10 5
10 10 0 6 -7 10 -15 10 -21 0 -19 18 3 23 16 4 16 5 -1 6 -10 0 -22 12 -26 24
-5 13 -25 31 -44 40 -19 9 -38 24 -41 33 -10 27 43 8 73 -27 25 -28 66 -39 73
-19 2 7 17 5 41 -5 50 -21 48 -3 -2 20 -39 17 -56 38 -45 56 3 5 12 9 20 9 12
0 12 4 4 20 -10 19 -9 20 28 14 29 -5 47 -1 68 12 43 27 63 63 28 50 -15 -6
-15 -4 -3 10 16 19 22 54 10 54 -5 0 -22 -7 -37 -15 -34 -17 -50 -19 -59 -5
-9 15 56 162 82 186 21 19 23 28 17 61 -7 38 -33 93 -44 93 -4 0 -7 14 -7 30
l0 31 26 -25 c14 -13 49 -33 76 -45 l50 -21 -26 23 c-15 12 -40 30 -58 39 -17
9 -31 23 -31 30 0 9 3 9 12 0 14 -14 94 -16 103 -2 9 15 39 12 61 -6 10 -8 13
-13 7 -9 -9 4 -11 1 -6 -10 4 -12 8 -13 13 -4 6 9 18 6 46 -12 46 -28 78 -59
70 -66 -9 -10 43 -33 60 -26 8 3 13 12 9 21 -3 8 0 21 7 30 11 12 9 17 -10 30
-12 8 -39 15 -59 16 -22 1 -57 15 -83 31 l-45 28 70 24 c38 13 73 27 79 33 18
18 -1 20 -44 5 -23 -8 -52 -15 -63 -15 -20 0 -20 0 -1 23 27 30 58 90 84 161
19 49 22 73 18 145 -3 47 -13 106 -22 131 -32 83 -31 85 38 99 33 7 67 17 74
23 15 13 15 4 1 -25 -10 -22 -10 -22 6 -2 13 17 17 18 25 5 5 -8 12 -11 16 -8
3 4 -1 15 -10 24 -16 15 -16 18 0 35 9 11 24 19 32 19 9 0 13 3 10 6 -4 3 2
14 11 23 10 10 26 40 36 67 10 27 25 57 33 67 9 9 12 20 9 24 -4 3 -7 1 -7 -5
0 -19 -18 -14 -23 6 -3 10 -5 7 -6 -10 -1 -38 -31 -109 -42 -102 -5 3 -9 10
-9 15 0 6 5 7 12 3 7 -4 8 -3 4 5 -6 9 -11 9 -23 -1 -10 -8 -11 -14 -4 -16 23
-8 10 -20 -26 -26 -85 -13 -103 -14 -98 -6 3 5 -9 7 -27 4 -40 -6 -98 26 -98
54 0 10 -5 23 -11 29 -15 15 27 27 86 26 26 0 33 2 21 7 -16 5 -14 8 15 21 19
7 39 13 46 11 16 -4 23 11 13 28 -7 11 -15 9 -42 -12 -36 -27 -89 -48 -122
-48 -16 0 -18 2 -7 9 7 5 10 14 6 21 -6 9 -10 9 -17 -1 -7 -10 -9 -8 -5 7 6
28 -23 26 -34 -2 -5 -15 -8 -16 -12 -4 -33 94 -43 119 -59 142 -10 14 -18 30
-18 36 0 5 -7 16 -16 23 -9 8 -28 31 -41 52 -13 21 -28 35 -34 32 -15 -10 -68
17 -62 32 3 8 -2 13 -14 13 -10 0 -31 6 -46 13 -24 11 -27 17 -27 62 0 28 -7
60 -15 71 -8 12 -11 25 -7 29 4 5 2 5 -4 2 -14 -8 -36 16 -32 34 2 7 -4 13
-12 14 -11 0 -15 12 -15 45 0 25 4 51 9 58 7 9 5 12 -5 10 -11 -2 -15 14 -19
67 -6 84 -35 147 -88 189 l-37 30 37 -40 c49 -52 79 -121 76 -179 -2 -52 -8
-49 -32 15 -24 66 -98 140 -138 140 -7 0 3 -8 22 -18 19 -10 34 -23 32 -31 -1
-7 1 -10 6 -7 24 14 90 -112 107 -204 5 -30 2 -27 -24 24 -16 33 -28 63 -25
68 3 5 2 7 -3 6 -5 -2 -20 8 -34 22 -39 40 -129 76 -129 51 0 -5 15 -12 33
-15 20 -4 47 -21 68 -43 29 -31 30 -33 7 -17 -15 10 -28 22 -28 26 0 7 -84 33
-87 27 -1 -2 -14 7 -29 21 -26 24 -26 24 -15 3 7 -13 8 -23 2 -23 -5 0 -11 6
-14 13 -3 9 -9 9 -28 0 -13 -7 -37 -11 -54 -9 -28 3 -30 6 -31 50 -1 26 -5 50
-9 54 -5 4 -5 -1 -2 -10 4 -10 2 -18 -3 -18 -6 0 -10 4 -10 9 0 5 -11 23 -25
39 -13 16 -21 33 -17 37 4 5 1 5 -6 1 -17 -10 -42 11 -42 35 0 10 -4 21 -10
24 -6 3 -7 -1 -4 -9 8 -22 -12 -20 -22 2 -4 9 -8 19 -8 22 -1 3 -7 14 -15 25
-9 15 -11 16 -7 3 9 -31 -3 -20 -24 22 -22 43 -25 54 -11 45 6 -3 -5 17 -22
44 -18 27 -33 48 -35 47 -1 -2 6 -24 17 -50 23 -53 10 -63 -30 -20 -13 14 -33
30 -43 36 -11 6 -1 -8 22 -31 22 -22 45 -41 50 -41 6 0 17 -14 26 -30 l15 -30
-32 22 c-18 12 -37 30 -44 39 -8 11 -21 15 -38 11 l-26 -5 28 -18 c37 -25 23
-24 -19 1 -26 15 -46 18 -98 15 -172 -11 -311 -26 -365 -41 -105 -28 -218 -44
-290 -43 -78 2 -135 15 -135 29 0 15 -50 11 -109 -9 -48 -17 -58 -17 -87 -5
-69 29 -186 15 -305 -37 -36 -16 -70 -29 -76 -29 -6 0 -16 -7 -23 -15 -7 -8
-16 -12 -21 -9 -5 3 -9 0 -9 -5 0 -22 -16 -10 -34 24 -20 37 -52 47 -62 20 -4
-8 -10 -15 -16 -15 -14 0 -34 -23 -42 -47 -4 -11 -15 -28 -26 -38 -18 -17 -21
-16 -57 14 -36 30 -83 42 -83 21 0 -5 -13 -10 -28 -10 -30 0 -157 -41 -169
-55 -5 -4 -2 -5 5 -1 6 4 12 5 12 2 0 -3 -15 -12 -32 -20 -18 -7 -46 -32 -63
-54 -31 -43 -55 -54 -55 -26 0 20 -42 -35 -65 -86 -9 -19 -23 -42 -31 -51 -9
-10 -18 -42 -20 -73 -5 -74 -21 -92 -80 -87 -40 3 -48 7 -63 34 -24 46 -79 97
-105 97 -32 0 -86 -39 -109 -77 -27 -48 -37 -136 -21 -191 18 -60 18 -61 -11
-56 -14 2 -25 0 -25 -6 0 -5 -7 -10 -16 -10 -9 0 -12 5 -8 12 5 8 -2 9 -26 5
-18 -4 -45 -7 -60 -7 -26 0 -175 -88 -166 -98 3 -2 32 13 67 33 107 62 147 58
94 -11 -14 -18 -25 -37 -25 -43 0 -6 -19 -15 -42 -21 -24 -6 -60 -18 -82 -26
-28 -11 -42 -12 -51 -4 -10 8 -17 6 -27 -8 -7 -10 -29 -24 -48 -32 -47 -18
-148 -86 -187 -125 -35 -36 -91 -143 -116 -220 -40 -123 -48 -260 -22 -371 8
-36 15 -81 15 -100 0 -43 10 -43 35 -2 l19 32 21 -69 c18 -57 27 -72 49 -79
18 -7 26 -17 26 -34 0 -13 7 -52 17 -86 14 -56 15 -65 1 -96 -35 -79 -47 -214
-29 -305 8 -37 9 -36 10 26 2 125 23 172 34 77 4 -28 18 -86 32 -129 21 -62
31 -78 48 -81 28 -4 103 -137 112 -199 6 -42 9 -46 35 -47 29 -1 29 -1 23 50
-5 41 -3 50 8 46 8 -3 21 -23 29 -46 9 -22 25 -51 37 -64 12 -13 30 -41 40
-63 39 -88 138 -223 227 -310 87 -85 96 -98 160 -228 53 -107 70 -152 76 -204
10 -81 29 -109 102 -148 30 -16 63 -36 72 -44 22 -19 20 -63 -4 -79 -26 -16
-25 -43 1 -66 l22 -18 -33 -26 c-37 -29 -63 -82 -53 -109 3 -10 22 -35 41 -57
38 -43 38 -58 -1 -169 l-22 -62 -54 -7 c-38 -4 -61 -14 -81 -33 -30 -28 -94
-171 -84 -186 3 -5 37 -25 76 -45 38 -19 68 -38 65 -40 -3 -3 -19 2 -36 11
-17 9 -37 15 -44 13 -6 -2 -71 23 -143 54 -161 71 -238 92 -334 93 -82 0 -130
-19 -130 -53 0 -9 -16 -34 -35 -55 -33 -37 -52 -72 -123 -227 -22 -48 -52 -87
-115 -150 -115 -116 -222 -257 -241 -318 -4 -12 -25 -44 -47 -72 -48 -60 -79
-115 -79 -138 0 -9 -7 -30 -15 -46 -8 -15 -12 -33 -8 -40 3 -6 0 -6 -8 2 -11
10 -11 16 -1 32 10 16 10 20 0 20 -10 0 -9 3 1 9 13 9 -15 20 -126 50 -24 7
-43 16 -43 20 0 5 -21 11 -47 15 -76 10 -143 38 -165 68 -11 16 -23 26 -28 23
-5 -3 -13 10 -20 29 -6 19 -18 40 -26 46 -19 16 -18 83 1 121 9 16 13 33 11
38 -3 5 6 21 20 36 14 15 30 38 35 51 4 13 15 24 23 24 8 0 19 7 24 16 6 10
31 18 73 24 35 4 72 11 81 15 11 4 18 3 18 -4 0 -6 7 -11 15 -11 11 0 15 11
15 39 0 37 -2 40 -32 43 -28 3 -34 9 -48 50 -17 49 -30 71 -30 50 0 -7 -4 -12
-10 -12 -6 0 -10 32 -10 75 0 41 -4 75 -9 75 -5 0 -7 9 -4 20 3 11 0 20 -6 20
-6 0 -10 3 -10 8 7 41 -15 41 -64 1 -20 -17 -41 -28 -46 -24 -5 3 -12 1 -16
-5 -3 -5 -15 -10 -26 -10 -11 0 -18 -4 -15 -8 3 -5 -9 -7 -27 -6 -18 2 -24 1
-14 -2 33 -10 17 -25 -20 -18 -21 4 -46 8 -58 9 -11 0 -38 9 -60 20 -32 15
-70 19 -191 22 -101 3 -154 1 -159 -6 -4 -7 16 -11 61 -11 56 0 72 -4 92 -22
16 -15 26 -19 29 -11 6 16 94 -40 122 -78 12 -16 26 -27 30 -25 5 3 13 -18 19
-47 11 -57 1 -139 -17 -145 -7 -2 -25 -15 -41 -29 -26 -21 -38 -24 -78 -20
-66 7 -135 26 -144 40 -7 12 -13 13 -50 16 -9 0 -23 7 -30 14 -7 7 -27 21 -43
31 -78 45 -72 245 8 275 20 8 18 11 -26 30 -27 12 -52 21 -56 21 -7 0 -43 57
-86 138 -26 49 -27 201 -2 254 16 34 126 138 146 138 6 0 11 5 11 10 0 6 -6
10 -14 10 -8 0 -21 6 -28 14 -8 7 -24 16 -35 20 -12 4 -35 22 -51 40 -16 19
-47 40 -68 47 -45 16 -74 38 -74 56 0 7 -9 13 -20 13 -12 0 -33 11 -48 25 -26
25 -27 26 -8 40 19 15 19 15 -2 15 -32 0 -30 52 3 88 28 30 33 79 10 88 -19 8
-19 34 0 34 8 0 15 -8 15 -18 0 -14 7 -17 40 -14 31 3 40 1 40 -11 0 -8 21
-25 48 -38 26 -12 51 -29 55 -36 4 -7 15 -13 22 -13 8 0 15 -4 15 -9 0 -5 13
-14 30 -21 16 -7 32 -21 35 -31 4 -11 16 -19 29 -19 13 0 35 -11 50 -25 15
-14 31 -23 36 -20 8 5 70 -24 81 -38 3 -4 26 -14 50 -21 69 -21 189 -80 189
-93 0 -6 9 -15 20 -18 11 -4 28 -17 36 -31 9 -13 22 -24 29 -24 8 0 22 -11 33
-25 11 -14 25 -25 31 -25 6 0 11 -4 11 -10 0 -5 6 -10 13 -10 7 0 17 -8 23
-18 7 -11 26 -19 49 -20 20 -2 58 -11 84 -21 29 -11 55 -15 67 -10 17 7 17 8
-3 8 -26 1 -30 23 -8 45 8 8 15 19 15 25 0 6 4 11 8 11 5 0 12 143 17 318 4
174 9 371 11 437 2 66 -2 143 -7 170 -6 28 -12 59 -14 70 -2 11 -18 36 -35 55
-16 18 -30 37 -30 41 0 16 -46 56 -80 70 -39 15 -38 15 -127 18 -49 1 -63 4
-63 16 0 9 -9 33 -20 55 -14 28 -20 59 -20 110 0 51 -6 82 -20 110 -11 22 -20
44 -20 50 0 13 -34 61 -74 104 -16 17 -35 46 -43 64 -7 17 -20 32 -28 32 -8 0
-15 9 -15 20 0 11 -4 20 -10 20 -17 0 -151 142 -146 155 3 8 -2 11 -15 8 -12
-3 -21 1 -25 11 -4 9 -20 24 -37 32 -23 12 -27 18 -16 25 10 6 10 9 2 9 -8 0
-13 15 -13 40 0 22 5 40 10 40 6 0 10 7 10 15 0 12 15 15 74 15 50 0 76 4 79
13 3 6 6 0 6 -15 1 -20 6 -28 20 -28 16 0 17 6 13 50 -4 45 -2 51 19 58 17 7
28 4 43 -10 15 -13 32 -18 60 -16 38 3 41 6 56 50 9 26 19 51 23 55 4 3 7 25
7 47 0 31 5 44 21 54 15 10 24 11 32 3 17 -17 25 -13 30 12 2 12 5 3 6 -20 1
-36 4 -43 21 -43 17 0 20 7 20 40 0 22 -4 40 -10 40 -6 0 -10 33 -10 80 0 64
-3 80 -15 80 -11 0 -15 11 -15 40 0 27 -4 40 -14 40 -9 0 -15 20 -20 68 -8 81
2 246 14 250 5 2 3 20 -5 40 -14 38 -24 100 -24 165 -1 26 -5 37 -16 37 -12 0
-15 -14 -15 -67 0 -41 -6 -80 -15 -97 -8 -15 -15 -34 -15 -40 0 -15 -42 -56
-57 -56 -7 0 -18 -6 -25 -14 -8 -7 -66 -21 -130 -30 -104 -15 -120 -16 -152
-2 -20 8 -36 12 -36 8 0 -3 -7 4 -16 16 -8 12 -24 22 -35 22 -10 0 -19 3 -19
8 0 4 -13 16 -30 27 -35 24 -40 47 -44 216 -2 96 -5 119 -22 141 -17 23 -62
49 -49 28 3 -4 -2 -13 -10 -20 -8 -7 -12 -17 -8 -23 4 -7 -5 -8 -26 -4 -47 10
-176 143 -223 232 -49 93 -71 177 -63 243 4 31 7 92 7 135 -1 43 3 77 9 77 6
0 8 37 5 92 -2 50 0 105 5 122 4 17 10 91 12 163 2 73 7 136 12 140 4 5 5 2 1
-4 -4 -7 -3 -13 2 -13 6 0 8 17 5 40 -5 33 -2 44 16 59 12 11 22 23 21 28 0 4
16 12 37 16 21 4 55 19 75 34 48 32 81 26 97 -18 16 -45 14 -142 -8 -404 -31
-368 -33 -413 -19 -454 7 -20 16 -40 20 -46 55 -74 92 -117 104 -122 27 -10
39 15 36 80 -2 35 2 101 7 147 6 47 13 137 16 202 7 139 13 161 56 220 43 58
96 84 201 99 78 11 88 10 130 -9 60 -26 158 -99 158 -116 0 -8 4 -16 9 -18 12
-4 17 -94 7 -130 -5 -17 -4 -28 2 -28 14 0 22 36 22 98 0 29 7 66 15 83 16 29
23 198 10 219 -8 14 16 80 30 80 16 0 35 60 35 114 0 26 3 45 8 42 4 -2 3 34
-2 80 l-9 84 -39 0 -38 0 -2 -67 c-2 -83 -2 -89 -13 -133 -8 -34 -54 -86 -65
-72 -3 4 -13 13 -23 21 -15 12 -20 11 -38 -5 -31 -28 -102 -24 -134 6 -14 13
-25 29 -25 37 0 7 -4 13 -10 13 -5 0 -10 7 -10 15 0 9 -13 39 -29 69 -15 29
-33 68 -39 85 l-11 31 -315 0 c-298 0 -316 -1 -316 -18 0 -24 -19 -42 -45 -42
-11 0 -50 -16 -87 -34 -48 -25 -69 -31 -77 -23 -6 6 -11 15 -11 20 0 5 -6 15
-14 22 -20 21 -51 -15 -42 -49 11 -45 91 -116 131 -116 17 0 49 -105 41 -135
-5 -20 -13 -25 -36 -25 -17 0 -30 -4 -30 -10 0 -5 -6 -10 -14 -10 -8 0 -21 -8
-28 -18 -14 -19 -92 -75 -119 -84 -9 -4 -28 4 -44 18 -15 13 -33 24 -39 24 -6
0 -17 9 -24 20 -7 12 -21 19 -37 18 -23 -2 -25 -6 -25 -50 0 -26 -4 -49 -9
-52 -5 -4 -7 63 -5 157 6 214 13 284 30 301 8 8 14 31 14 50 l0 36 -210 0
-210 0 0 -1490z m6188 741 c34 -10 112 -66 112 -82 0 -17 -41 7 -60 36 -23 35
-26 26 -6 -14 l15 -28 -56 -2 c-52 -1 -55 0 -42 16 7 10 10 15 5 11 -8 -7 -15
-5 -91 27 l-40 17 30 -29 c17 -16 37 -27 45 -24 11 3 10 -1 -4 -17 -22 -25
-41 -29 -33 -8 6 16 -10 26 -30 18 -7 -2 -13 -11 -13 -18 0 -12 -5 -12 -31 1
-32 17 -104 85 -89 85 5 0 17 3 27 6 12 4 14 3 5 -3 -8 -6 5 -9 37 -9 27 1 49
3 49 6 0 3 0 8 1 13 2 10 130 9 169 -2z m-2513 -489 c6 -4 20 -21 32 -37 l21
-31 -25 -22 c-13 -12 -32 -22 -42 -22 -23 0 -49 -20 -64 -49 -21 -43 -34 -35
-36 19 -2 93 65 177 114 142z m-592 -598 c4 -4 -1 -14 -11 -23 -35 -31 -82
-107 -97 -156 -8 -27 -15 -51 -15 -52 0 -2 7 -3 15 -3 20 0 19 -5 -7 -36 -54
-60 -135 -227 -144 -294 l-8 -55 -8 55 c-11 81 9 231 44 325 40 104 87 168
164 220 37 25 55 30 67 19z m4344 -301 c36 -45 55 -109 55 -181 0 -80 -15
-107 -74 -138 -34 -18 -36 -18 -41 4 -2 9 -3 7 -2 -5 1 -13 -2 -23 -6 -23 -5
0 -9 -4 -9 -10 0 -5 5 -9 11 -7 24 5 18 -20 -6 -31 -35 -16 -37 -15 -30 7 3
12 0 21 -10 25 -11 4 -14 0 -12 -17 2 -12 2 -16 0 -9 -3 6 -11 12 -18 12 -9 0
-18 21 -25 58 -6 31 -14 66 -17 77 l-6 20 23 -20 c23 -19 23 -19 16 -1 -7 19
-6 19 14 1 11 -10 20 -25 21 -34 0 -10 2 -12 6 -3 2 6 9 9 15 6 24 -15 -15 36
-42 56 l-31 22 30 29 c35 33 58 37 64 12 2 -10 4 -2 3 18 0 33 40 149 52 149
2 0 11 -8 19 -17z m-4442 -220 c-9 -58 -19 -115 -21 -127 -3 -11 -8 -53 -12
-93 -8 -77 -17 -97 -33 -73 -48 76 -25 235 59 398 25 48 26 20 7 -105z m1090
-256 c7 -7 4 -8 -10 -3 -46 17 -81 18 -94 2 -13 -15 -10 -16 23 -12 23 3 36 0
37 -7 0 -8 2 -8 6 1 2 6 9 12 14 12 6 0 7 -5 4 -10 -3 -6 1 -13 9 -16 9 -3 13
-11 9 -17 -3 -6 -1 -7 5 -3 7 4 12 3 12 -2 0 -5 10 -12 22 -15 27 -8 16 -20
-20 -24 -22 -2 -23 -1 -8 6 13 5 16 10 9 14 -7 4 -14 3 -17 -2 -3 -4 -27 2
-53 15 -27 13 -52 23 -58 23 -5 0 13 -11 40 -26 119 -60 228 -221 249 -368 5
-36 5 -37 -5 -12 -11 29 -24 35 -33 15 -3 -7 -3 -2 0 12 4 14 3 22 -2 17 -4
-4 -20 25 -36 65 -37 94 -81 153 -157 211 -100 75 -199 102 -306 85 -75 -13
74 32 170 51 91 18 166 13 190 -12z m-3160 -1372 c22 -8 51 -12 65 -9 16 4 21
3 12 -3 -9 -7 -6 -13 13 -21 14 -7 32 -12 40 -12 8 0 15 -7 15 -15 0 -9 6 -18
14 -21 17 -7 -28 -53 -70 -73 -24 -11 -26 -15 -12 -20 13 -4 15 -10 7 -21 -8
-13 -10 -13 -19 1 -6 10 -25 16 -50 17 -28 1 -49 10 -67 26 -26 24 -25 50 2
39 8 -3 15 0 15 6 0 6 -17 11 -39 11 -35 0 -39 2 -34 21 4 16 8 17 14 7 6 -9
9 -2 9 20 0 22 -5 32 -15 32 -8 0 -15 7 -15 15 0 19 60 19 115 0z m7799 -190
c3 -8 12 -15 20 -15 40 0 64 -141 30 -175 -9 -8 -14 -21 -11 -29 3 -7 2 -51
-2 -97 -7 -78 -6 -87 17 -129 18 -33 26 -65 30 -120 4 -67 2 -77 -17 -94 -11
-11 -21 -25 -21 -33 0 -7 -4 -13 -10 -13 -19 0 -10 -29 20 -58 36 -37 36 -39
7 -66 -13 -12 -29 -31 -36 -42 -8 -13 -14 -15 -17 -6 -4 7 -27 12 -62 12 -50
1 -55 2 -39 14 9 7 17 17 17 21 0 5 7 17 17 27 15 17 14 18 -23 18 -29 0 -44
6 -60 25 -12 14 -26 24 -31 23 -20 -6 -63 59 -63 96 0 20 5 36 10 36 6 0 10 7
10 16 0 8 4 13 9 10 13 -8 32 153 24 214 -3 32 -16 70 -30 90 -12 19 -23 31
-23 26 0 -5 -7 -3 -15 4 -14 11 -14 16 1 39 9 14 22 31 28 36 7 6 18 31 25 58
8 27 19 47 27 47 8 0 14 8 14 17 0 9 10 27 22 40 17 18 32 23 74 23 37 0 54
-4 58 -15z m1475 -17 c18 -11 18 -12 -2 -40 -28 -38 -75 -62 -93 -47 -11 9
-14 7 -14 -9 0 -12 5 -24 10 -27 15 -10 -8 -35 -25 -29 -7 3 -23 -8 -36 -25
-13 -17 -28 -31 -35 -31 -6 0 -17 -7 -24 -16 -8 -8 -29 -22 -47 -29 -19 -8
-32 -19 -28 -25 4 -6 3 -9 -2 -8 -5 2 -19 -7 -32 -19 -13 -12 -27 -20 -31 -18
-4 3 -13 -2 -20 -10 -7 -8 -15 -13 -19 -11 -4 3 -13 1 -21 -5 -12 -6 -12 -9
-2 -9 11 0 11 -3 -1 -14 -20 -20 -89 -56 -97 -51 -4 3 -10 -5 -13 -16 -3 -11
-15 -23 -27 -26 -12 -3 -26 -17 -31 -30 -5 -14 -18 -27 -29 -30 -11 -3 -20 -9
-20 -12 0 -4 -7 -8 -15 -9 -8 -1 -21 -3 -29 -4 -8 -1 -12 -7 -9 -14 6 -15 -33
-38 -53 -30 -11 4 -13 0 -8 -18 4 -18 0 -27 -15 -36 -12 -6 -21 -18 -21 -26 0
-8 -15 -21 -34 -29 -18 -8 -36 -21 -40 -30 -14 -38 -176 11 -189 58 -3 11 -11
15 -21 11 -11 -4 -16 -1 -16 10 0 9 5 16 10 16 6 0 10 6 10 14 0 8 13 20 28
27 16 7 33 22 38 33 5 11 25 28 44 39 49 27 90 63 82 72 -4 5 3 5 16 2 16 -4
31 2 49 19 15 13 37 27 49 30 13 4 21 11 18 19 -4 9 14 21 55 36 64 23 80 41
33 37 -29 -2 -92 19 -92 31 0 3 10 11 23 16 12 6 26 20 32 32 9 20 16 22 97
22 49 0 88 -4 88 -10 0 -5 -15 -10 -32 -10 -32 -1 -32 -2 7 -9 22 -4 49 -4 60
0 11 4 26 5 33 3 6 -3 12 -1 12 4 0 5 19 17 43 27 23 10 52 28 64 39 12 11 34
21 49 23 23 2 73 37 82 57 2 4 10 7 18 7 24 0 144 64 144 77 0 16 5 16 29 1z
m-9329 -781 c64 -6 118 -27 145 -57 15 -17 19 -36 19 -96 1 -41 4 -74 8 -74
14 0 9 -16 -12 -38 -11 -12 -20 -23 -20 -26 0 -3 -11 -17 -25 -31 -22 -21 -35
-25 -83 -25 -31 0 -68 7 -82 15 -14 8 -32 17 -40 20 -34 14 -45 23 -48 39 -2
9 -17 29 -33 45 -28 28 -29 32 -23 93 5 44 14 73 30 95 13 17 24 36 24 42 0
11 72 20 80 10 3 -4 30 -9 60 -12z m560 -1161 c53 -6 90 -17 90 -27 0 -5 8 -9
18 -9 23 0 67 -48 87 -96 24 -57 19 -132 -16 -231 -16 -48 -35 -96 -40 -105
-5 -10 -11 -34 -14 -53 -2 -19 -9 -44 -15 -55 -6 -11 -10 -39 -9 -63 1 -23 -3
-52 -9 -64 -20 -36 -15 -55 11 -48 12 3 0 -7 -28 -24 -27 -17 -55 -31 -62 -31
-6 0 -13 -3 -15 -7 -1 -5 -18 -18 -35 -31 -23 -15 -31 -18 -27 -7 4 8 10 15
15 15 5 0 24 15 43 34 19 18 38 30 43 25 4 -4 16 -2 26 6 16 12 15 13 -15 10
-18 -2 -41 -6 -50 -10 -11 -4 -18 -3 -18 4 0 6 8 11 17 11 12 0 4 12 -26 40
-23 22 -46 40 -51 40 -5 0 -11 8 -14 18 -3 9 -24 37 -46 61 -22 24 -40 47 -40
52 0 4 -9 14 -19 21 -14 10 -23 35 -31 84 -6 38 -18 92 -27 121 -11 35 -14 68
-9 100 8 61 35 144 53 161 7 7 13 21 13 31 0 30 56 49 114 39 28 -5 67 -10 86
-12z m1628 -140 c27 2 27 1 0 -22 -22 -19 -22 -19 -8 0 8 11 11 17 5 15 -41
-18 -65 -34 -65 -41 0 -5 10 -4 23 2 24 12 21 9 -38 -38 -24 -19 -27 -25 -15
-33 12 -8 10 -9 -6 -4 -16 4 -60 -18 -165 -81 -79 -48 -200 -118 -269 -155
-69 -38 -120 -69 -113 -69 6 0 20 -3 30 -7 10 -3 15 -3 12 1 -4 4 43 33 105
65 112 59 218 120 334 194 34 22 65 37 68 35 5 -6 -39 -35 -181 -118 -49 -29
-97 -58 -105 -65 -8 -7 -56 -34 -107 -59 -88 -44 -134 -77 -80 -57 48 19 172
84 175 92 2 5 9 9 15 9 7 0 34 16 61 35 27 19 55 35 63 35 7 0 13 5 13 11 0 5
5 7 10 4 6 -3 10 -2 10 3 0 15 101 73 113 65 7 -3 9 -3 5 2 -4 4 4 16 17 27
13 10 22 24 20 31 -3 7 14 25 37 41 23 17 38 25 34 18 -11 -18 44 5 61 26 8 9
12 11 8 5 -3 -7 -1 -13 4 -13 6 0 11 6 12 13 0 6 4 3 9 -8 5 -11 9 -15 9 -9 1
12 31 15 31 4 0 -11 -30 -34 -31 -24 0 5 -5 -2 -10 -15 -6 -17 -6 -28 1 -35 8
-8 9 -6 4 8 -5 14 -4 17 4 12 7 -4 15 0 18 9 4 9 21 23 38 31 25 13 21 5 -26
-40 -32 -31 -58 -61 -58 -66 0 -6 -6 -10 -12 -10 -9 0 -9 -3 -3 -8 6 -4 12
-18 12 -31 2 -18 -1 -21 -10 -12 -18 18 -28 13 -15 -8 19 -30 0 -45 -166 -126
-210 -102 -302 -138 -326 -125 -10 6 -25 10 -32 10 -7 0 7 -12 32 -26 49 -27
81 -64 56 -64 -7 0 -51 20 -97 44 -46 25 -109 52 -140 61 -59 17 -68 18 -139
30 -25 4 -54 10 -65 12 -11 3 -56 7 -100 10 -133 7 -119 12 25 9 75 -1 140 -5
145 -7 6 -3 24 -6 40 -7 24 0 26 1 10 7 -11 5 -25 6 -31 4 -7 -2 -15 0 -18 5
-3 5 16 17 42 27 73 28 316 132 375 161 28 14 60 27 70 29 25 6 89 46 83 53
-3 2 -14 -1 -23 -9 -10 -7 -13 -8 -8 -1 6 6 53 38 104 72 52 33 89 60 82 60
-7 0 -9 5 -5 11 3 6 9 7 13 2 3 -5 16 -8 29 -7z m-73 -15 c-3 -6 -11 -9 -16
-6 -5 4 -9 -1 -9 -9 0 -16 -7 -19 -43 -19 -13 0 -15 -3 -6 -13 6 -8 7 -14 3
-14 -5 0 -36 -18 -69 -40 -33 -22 -69 -40 -80 -40 -14 0 -16 -3 -7 -8 8 -6
-21 -23 -84 -50 -53 -23 -101 -39 -106 -36 -6 4 -8 3 -5 -3 4 -6 -40 -28 -101
-53 -59 -23 -131 -53 -159 -66 -29 -12 -53 -19 -53 -15 0 5 -16 8 -35 6 -19
-1 -35 2 -35 8 0 5 6 7 13 4 11 -4 40 17 32 24 -1 2 4 11 13 19 14 13 15 12 9
-4 -5 -12 -3 -16 5 -13 7 2 12 10 10 16 -1 7 7 10 20 7 33 -7 114 26 110 45
-1 10 13 23 37 35 22 10 37 22 35 26 -8 13 11 9 25 -4 10 -11 11 -10 6 4 -5
12 2 21 25 33 18 9 38 14 45 11 7 -2 16 3 20 12 5 14 8 14 15 2 7 -11 12 -11
23 -2 8 7 23 10 33 6 11 -3 15 -2 9 3 -5 4 -11 14 -13 22 -3 12 0 12 11 2 12
-9 16 -9 19 0 3 9 12 7 31 -6 17 -11 27 -13 27 -6 0 7 4 10 8 7 5 -3 16 4 25
15 9 10 23 19 31 19 8 0 18 5 22 12 4 6 3 8 -2 5 -5 -3 -10 3 -10 13 0 18 1
18 20 2 18 -16 19 -16 12 2 -6 17 -5 17 11 5 9 -8 14 -9 10 -2 -5 7 4 14 23
18 16 4 30 11 30 15 0 5 7 7 15 4 8 -4 15 -1 15 6 0 7 7 10 15 6 8 -3 15 0 15
6 0 6 3 9 6 5 3 -3 3 -11 -1 -16z m235 -113 c0 -6 -3 -9 -6 -5 -3 3 -12 0 -19
-6 -10 -9 -10 -15 -1 -26 8 -12 8 -13 -1 -7 -7 4 -13 2 -13 -3 0 -6 6 -11 13
-12 9 0 9 -2 -1 -6 -10 -4 -10 -8 -1 -19 10 -12 8 -13 -7 -7 -17 6 -17 5 -6
-9 10 -12 11 -22 3 -36 -6 -11 -8 -22 -6 -26 3 -3 2 -4 -1 -2 -3 3 -18 -6 -33
-20 -14 -13 -32 -22 -38 -19 -7 2 -13 0 -13 -5 0 -6 -17 -18 -37 -27 -69 -29
-103 -47 -103 -54 0 -4 -11 -10 -24 -13 -13 -3 -54 -24 -92 -46 -38 -22 -77
-39 -87 -36 -9 2 -15 0 -11 -5 3 -5 -11 -9 -30 -9 -20 0 -36 4 -36 8 0 10 33
27 70 38 14 4 53 20 87 35 33 16 64 29 68 29 20 0 199 97 231 124 29 25 38 40
38 68 1 20 -2 34 -6 32 -19 -12 -6 22 19 48 28 30 43 35 43 16z m6205 -80 c23
-34 47 -112 46 -148 -3 -80 -6 -94 -35 -152 -22 -47 -32 -58 -52 -58 -13 0
-33 9 -44 20 -11 11 -27 20 -36 20 -8 0 -12 5 -9 10 3 6 2 10 -3 10 -6 0 -13
11 -16 25 -4 16 -13 25 -22 23 -13 -2 -16 9 -17 62 -2 50 1 65 12 65 14 0 60
74 65 104 4 23 46 39 79 30 16 -5 31 -10 32 -11z m-7133 -299 c129 -28 278
-93 278 -120 0 -5 -19 -19 -42 -29 -24 -11 -39 -20 -33 -20 15 0 -162 -90
-178 -90 -8 0 -17 -6 -20 -14 -7 -17 -155 -64 -227 -73 -30 -3 -58 -10 -61
-15 -7 -10 -87 6 -136 28 -17 8 -36 14 -41 14 -17 0 -42 60 -42 100 0 33 8 45
58 94 31 31 62 56 69 56 15 0 56 57 49 68 -2 4 7 9 21 10 13 1 32 7 41 12 23
14 154 4 264 -21z m4931 -1076 c16 -38 59 -200 102 -388 12 -55 32 -131 43
-170 33 -112 72 -405 72 -546 0 -108 -21 -304 -38 -349 -3 -8 -9 41 -13 110
-9 164 -33 367 -69 570 -16 91 -34 206 -40 255 -11 85 -50 296 -85 450 -31
138 -30 129 -8 117 11 -6 27 -28 36 -49z m-3303 -66 c95 -91 273 -241 603
-508 59 -49 136 -105 170 -125 34 -20 77 -51 95 -68 40 -37 169 -231 258 -386
21 -35 79 -127 131 -204 51 -77 93 -146 93 -153 0 -28 -39 -10 -150 69 -63 45
-162 113 -220 151 -127 84 -156 110 -228 207 -165 221 -279 336 -542 544 -41
33 -106 85 -145 116 -38 31 -95 74 -125 96 -64 45 -130 115 -154 161 -22 43
-20 52 10 59 20 5 33 0 62 -28 20 -20 109 -93 197 -164 88 -70 194 -157 235
-192 41 -36 102 -87 135 -115 162 -138 285 -277 416 -473 37 -56 204 -184 240
-184 18 0 17 4 -12 58 -35 61 -165 273 -206 334 -17 25 -58 56 -130 98 -57 34
-155 104 -216 157 -202 172 -221 188 -332 278 -187 150 -305 255 -305 271 0
17 35 54 53 54 6 0 37 -24 67 -53z"/>
<path d="M7740 10120 c0 -29 -4 -40 -15 -40 -11 0 -15 -11 -15 -40 0 -36 -2
-40 -25 -40 -16 0 -25 -6 -25 -16 0 -8 5 -12 10 -9 6 4 10 -11 10 -37 0 -31
-3 -39 -10 -28 -5 8 -10 24 -10 35 0 17 -5 15 -30 -14 -17 -18 -30 -41 -30
-50 0 -10 -5 -22 -12 -29 -9 -9 -9 -12 0 -12 7 0 12 -7 12 -15 0 -8 -7 -15
-15 -15 -8 0 -22 -15 -31 -32 -9 -18 -20 -35 -23 -38 -9 -8 -41 -102 -41 -122
0 -10 7 -18 15 -18 19 0 20 -29 1 -44 -23 -18 -28 -52 -11 -70 23 -22 94 -21
111 2 10 12 13 13 14 3 0 -25 30 9 30 35 0 12 7 30 16 38 10 10 13 24 9 38 -5
18 -4 19 4 8 12 -18 13 -16 40 39 11 25 21 60 21 78 0 18 5 33 10 33 6 0 10
11 10 24 0 13 7 29 15 36 12 10 15 43 15 176 l0 164 -25 0 c-22 0 -25 -4 -25
-40z"/>
<path d="M2110 9690 c0 -5 4 -10 9 -10 5 0 12 -36 16 -80 4 -44 11 -80 16 -80
5 0 9 -21 9 -47 0 -27 9 -77 20 -113 11 -36 23 -78 25 -95 9 -47 16 -65 26
-65 5 0 9 -6 9 -13 0 -8 11 -24 25 -37 l25 -23 6 32 c4 17 11 34 15 37 5 3 9
15 9 28 0 12 7 31 15 42 18 24 19 71 1 126 -8 24 -22 78 -31 122 -21 99 -50
136 -107 136 -27 0 -38 4 -38 15 0 8 -7 15 -15 15 -8 0 -15 5 -15 10 0 6 -4
10 -10 10 -5 0 -10 -4 -10 -10z"/>
<path d="M1970 8160 c0 -64 3 -80 15 -80 9 0 15 -9 15 -23 0 -13 6 -29 13 -36
10 -11 10 -14 0 -18 -18 -6 -16 -38 2 -53 8 -7 15 -16 15 -21 0 -5 -7 -9 -15
-9 -8 0 -15 -4 -15 -10 0 -5 6 -10 14 -10 20 0 25 -22 19 -84 -5 -49 -4 -56
11 -56 16 0 17 -8 11 -84 -8 -88 0 -140 16 -115 6 10 9 6 9 -13 0 -16 -4 -28
-10 -28 -5 0 -10 -18 -10 -40 0 -22 5 -40 10 -40 18 0 12 -77 -6 -84 -24 -9
-14 -114 14 -154 12 -15 24 -40 27 -55 13 -51 55 -29 55 29 0 43 20 25 21 -18
l1 -43 8 51 c9 61 16 75 34 68 7 -3 19 3 27 12 11 13 14 58 15 193 1 120 6
200 17 251 9 41 17 98 18 125 1 48 -15 147 -26 166 -4 5 -8 18 -10 29 -4 20
-49 86 -72 106 -8 7 -32 9 -58 6 -44 -5 -105 12 -105 29 0 5 -7 9 -15 9 -11 0
-15 11 -15 40 0 29 -4 40 -15 40 -12 0 -15 -16 -15 -80z"/>
<path d="M7836 7878 c5 -7 0 -9 -14 -6 -13 4 -20 2 -16 -4 3 -5 0 -9 -7 -7
-29 3 -39 -2 -39 -20 0 -11 6 -21 13 -24 10 -4 10 -7 0 -18 -10 -9 -13 -10
-13 -1 0 21 -20 13 -30 -13 -5 -14 -15 -25 -21 -25 -12 0 -8 -82 6 -113 6 -14
3 -20 -14 -24 -15 -4 -21 -13 -21 -35 0 -16 -4 -27 -9 -24 -16 10 -18 -53 -2
-69 10 -10 11 -15 3 -15 -7 0 -12 -5 -12 -11 0 -5 5 -7 10 -4 6 3 10 2 10 -4
0 -5 -7 -11 -15 -13 -10 -2 -7 -7 10 -15 14 -6 23 -7 19 -2 -4 7 148 16 180
10 5 -1 4 4 -3 13 -10 12 -8 16 8 21 12 3 25 4 30 1 16 -10 20 21 5 42 -9 13
-11 23 -4 27 5 3 10 0 10 -8 0 -19 23 -28 41 -16 21 13 17 214 -6 274 -9 25
-21 45 -26 45 -5 0 -9 6 -9 14 0 8 -5 18 -12 22 -7 5 -8 3 -3 -7 6 -10 3 -10
-11 2 -22 18 -68 24 -58 7z"/>
<path d="M8001 6883 c-1 -28 -6 -35 -37 -48 -20 -8 -56 -15 -80 -15 -47 0 -45
2 -58 -80 -14 -91 -44 -202 -60 -219 -10 -11 -32 -23 -50 -27 -17 -3 -51 -19
-75 -35 -24 -16 -60 -32 -80 -35 -39 -8 -78 -45 -108 -104 -10 -19 -21 -37
-24 -40 -4 -3 -17 -24 -29 -47 -12 -24 -26 -43 -31 -43 -5 0 -9 -7 -9 -15 0
-8 -4 -15 -10 -15 -5 0 -10 -18 -10 -40 0 -23 -5 -40 -11 -40 -8 0 -8 -5 1
-15 7 -8 16 -15 21 -15 5 0 9 7 9 15 0 23 20 18 42 -10 16 -21 28 -25 69 -25
48 0 49 -1 49 -30 0 -28 2 -30 40 -30 38 0 40 2 40 30 l0 30 79 0 c67 0 80 -3
84 -17 3 -10 5 1 6 25 1 40 3 42 31 42 28 0 30 -2 31 -42 l2 -43 7 40 c6 31 7
34 9 13 0 -16 6 -28 12 -28 16 0 39 26 39 44 0 9 5 16 10 16 6 0 10 -11 10
-25 0 -30 11 -32 36 -4 15 17 16 22 4 29 -12 7 -11 12 4 29 25 27 36 26 36 -2
0 -14 6 -24 15 -24 11 0 15 11 15 39 0 21 5 38 10 38 6 0 10 18 10 40 0 29 4
40 15 40 11 0 15 11 15 40 0 29 -4 40 -15 40 -11 0 -15 11 -15 40 0 29 4 40
15 40 11 0 15 11 15 40 0 29 -4 40 -15 40 -12 0 -15 16 -15 80 0 64 3 80 15
80 12 0 15 18 15 103 0 107 -8 129 -50 139 -8 2 -18 10 -22 18 -4 9 -7 3 -7
-17z"/>
<path d="M9873 124 c-25 -10 -33 -20 -33 -39 0 -16 -6 -25 -15 -25 -8 0 -15
-6 -15 -14 0 -22 -28 -27 -151 -24 -76 2 -121 -1 -134 -9 -16 -10 22 -12 191
-13 l211 0 -4 24 c-4 21 0 24 54 35 50 9 66 9 96 -4 25 -10 37 -22 37 -35 0
-18 7 -20 65 -20 l65 0 0 71 0 72 -29 -6 c-16 -4 -68 -12 -114 -18 -74 -11
-90 -11 -129 4 -51 20 -53 20 -95 1z"/>
</g>
</svg>
